<mxfile host="app.diagrams.net" agent="Mozilla/5.0 (Windows NT 10.0; Win64; x64) AppleWebKit/537.36 (KHTML, like Gecko) Chrome/139.0.0.0 Safari/537.36" version="28.1.1">
  <diagram name="Page-1" id="5UDMjex_XgULVa2tQM1d">
    <mxGraphModel dx="2246" dy="1289" grid="1" gridSize="10" guides="1" tooltips="1" connect="1" arrows="1" fold="1" page="1" pageScale="1" pageWidth="827" pageHeight="1169" math="0" shadow="0">
      <root>
        <mxCell id="0" />
        <mxCell id="1" parent="0" />
        <mxCell id="gaoajHwSLxDOB-NbGoxR-1" value="&lt;font style=&quot;font-size: 14px;&quot;&gt;Start&lt;/font&gt;" style="ellipse;whiteSpace=wrap;html=1;fillColor=#60a917;strokeColor=#2D7600;fontColor=#ffffff;" vertex="1" parent="1">
          <mxGeometry x="75" y="90" width="250" height="70" as="geometry" />
        </mxCell>
        <mxCell id="gaoajHwSLxDOB-NbGoxR-3" value="&lt;font style=&quot;font-size: 14px;&quot;&gt;New User ?&lt;/font&gt;" style="rhombus;whiteSpace=wrap;html=1;fillColor=#dae8fc;strokeColor=#6c8ebf;" vertex="1" parent="1">
          <mxGeometry x="90" y="270" width="220" height="100" as="geometry" />
        </mxCell>
        <mxCell id="gaoajHwSLxDOB-NbGoxR-4" value="&lt;font style=&quot;font-size: 14px;&quot;&gt;Recognize the face&lt;/font&gt;" style="shape=parallelogram;perimeter=parallelogramPerimeter;whiteSpace=wrap;html=1;fixedSize=1;fillColor=#d80073;fontColor=#ffffff;strokeColor=#A50040;" vertex="1" parent="1">
          <mxGeometry x="75" y="460" width="250" height="70" as="geometry" />
        </mxCell>
        <mxCell id="gaoajHwSLxDOB-NbGoxR-5" value="&lt;font style=&quot;font-size: 14px;&quot;&gt;Face Recognized&lt;/font&gt;" style="rhombus;whiteSpace=wrap;html=1;fillColor=#6d8764;fontColor=#ffffff;strokeColor=#3A5431;" vertex="1" parent="1">
          <mxGeometry x="85" y="630" width="230" height="110" as="geometry" />
        </mxCell>
        <mxCell id="gaoajHwSLxDOB-NbGoxR-7" value="&lt;font style=&quot;font-size: 14px;&quot;&gt;Stored in CSV with Registration Number &amp;amp;&lt;/font&gt;&lt;div&gt;&lt;font size=&quot;3&quot;&gt;Data Time of Entry&lt;/font&gt;&lt;/div&gt;" style="shape=parallelogram;perimeter=parallelogramPerimeter;whiteSpace=wrap;html=1;fixedSize=1;fillColor=#1ba1e2;strokeColor=#006EAF;fontColor=#ffffff;" vertex="1" parent="1">
          <mxGeometry x="70" y="840" width="290" height="70" as="geometry" />
        </mxCell>
        <mxCell id="gaoajHwSLxDOB-NbGoxR-8" value="&lt;font style=&quot;font-size: 14px;&quot;&gt;END&lt;/font&gt;" style="ellipse;whiteSpace=wrap;html=1;fillColor=#fad7ac;strokeColor=#b46504;" vertex="1" parent="1">
          <mxGeometry x="100" y="1000" width="210" height="80" as="geometry" />
        </mxCell>
        <mxCell id="gaoajHwSLxDOB-NbGoxR-10" value="&lt;font style=&quot;font-size: 14px;&quot;&gt;Store the face data in folder on your&lt;/font&gt;&lt;div&gt;&lt;font size=&quot;3&quot;&gt;name&lt;/font&gt;&lt;/div&gt;" style="rounded=0;whiteSpace=wrap;html=1;fillColor=#647687;strokeColor=#314354;fontColor=#ffffff;" vertex="1" parent="1">
          <mxGeometry x="450" y="460" width="220" height="70" as="geometry" />
        </mxCell>
        <mxCell id="gaoajHwSLxDOB-NbGoxR-11" value="&lt;font style=&quot;font-size: 14px;&quot;&gt;Give Your Photograph&lt;/font&gt;" style="rounded=0;whiteSpace=wrap;html=1;fillColor=#ffcd28;strokeColor=#d79b00;gradientColor=#ffa500;" vertex="1" parent="1">
          <mxGeometry x="460" y="280" width="220" height="60" as="geometry" />
        </mxCell>
        <mxCell id="gaoajHwSLxDOB-NbGoxR-12" value="" style="endArrow=classic;html=1;rounded=0;exitX=0.5;exitY=1;exitDx=0;exitDy=0;" edge="1" parent="1" source="gaoajHwSLxDOB-NbGoxR-5">
          <mxGeometry width="50" height="50" relative="1" as="geometry">
            <mxPoint x="-40" y="500" as="sourcePoint" />
            <mxPoint x="200" y="840" as="targetPoint" />
          </mxGeometry>
        </mxCell>
        <mxCell id="gaoajHwSLxDOB-NbGoxR-13" value="" style="endArrow=classic;html=1;rounded=0;exitX=0.5;exitY=1;exitDx=0;exitDy=0;entryX=0.5;entryY=0;entryDx=0;entryDy=0;" edge="1" parent="1" source="gaoajHwSLxDOB-NbGoxR-1" target="gaoajHwSLxDOB-NbGoxR-3">
          <mxGeometry width="50" height="50" relative="1" as="geometry">
            <mxPoint x="140" y="300" as="sourcePoint" />
            <mxPoint x="190" y="250" as="targetPoint" />
          </mxGeometry>
        </mxCell>
        <mxCell id="gaoajHwSLxDOB-NbGoxR-14" value="" style="endArrow=classic;html=1;rounded=0;entryX=0.5;entryY=0;entryDx=0;entryDy=0;exitX=0.5;exitY=1;exitDx=0;exitDy=0;" edge="1" parent="1" source="gaoajHwSLxDOB-NbGoxR-3" target="gaoajHwSLxDOB-NbGoxR-4">
          <mxGeometry width="50" height="50" relative="1" as="geometry">
            <mxPoint x="-40" y="500" as="sourcePoint" />
            <mxPoint x="10" y="450" as="targetPoint" />
          </mxGeometry>
        </mxCell>
        <mxCell id="gaoajHwSLxDOB-NbGoxR-15" value="" style="endArrow=classic;html=1;rounded=0;entryX=0.5;entryY=0;entryDx=0;entryDy=0;exitX=0.5;exitY=1;exitDx=0;exitDy=0;" edge="1" parent="1" source="gaoajHwSLxDOB-NbGoxR-4" target="gaoajHwSLxDOB-NbGoxR-5">
          <mxGeometry width="50" height="50" relative="1" as="geometry">
            <mxPoint x="-40" y="500" as="sourcePoint" />
            <mxPoint x="10" y="450" as="targetPoint" />
          </mxGeometry>
        </mxCell>
        <mxCell id="gaoajHwSLxDOB-NbGoxR-16" value="" style="endArrow=none;html=1;rounded=0;exitX=1;exitY=0.5;exitDx=0;exitDy=0;entryX=0;entryY=0.5;entryDx=0;entryDy=0;" edge="1" parent="1" source="gaoajHwSLxDOB-NbGoxR-3" target="gaoajHwSLxDOB-NbGoxR-11">
          <mxGeometry width="50" height="50" relative="1" as="geometry">
            <mxPoint x="450" y="420" as="sourcePoint" />
            <mxPoint x="500" y="370" as="targetPoint" />
          </mxGeometry>
        </mxCell>
        <mxCell id="gaoajHwSLxDOB-NbGoxR-17" value="" style="endArrow=none;html=1;rounded=0;" edge="1" parent="1">
          <mxGeometry width="50" height="50" relative="1" as="geometry">
            <mxPoint x="560" y="200" as="sourcePoint" />
            <mxPoint x="760" y="200" as="targetPoint" />
          </mxGeometry>
        </mxCell>
        <mxCell id="gaoajHwSLxDOB-NbGoxR-18" value="" style="endArrow=none;html=1;rounded=0;" edge="1" parent="1">
          <mxGeometry width="50" height="50" relative="1" as="geometry">
            <mxPoint x="760" y="680" as="sourcePoint" />
            <mxPoint x="760" y="200" as="targetPoint" />
          </mxGeometry>
        </mxCell>
        <mxCell id="gaoajHwSLxDOB-NbGoxR-19" value="" style="endArrow=classic;html=1;rounded=0;entryX=0.456;entryY=-0.032;entryDx=0;entryDy=0;entryPerimeter=0;" edge="1" parent="1" target="gaoajHwSLxDOB-NbGoxR-11">
          <mxGeometry width="50" height="50" relative="1" as="geometry">
            <mxPoint x="560" y="200" as="sourcePoint" />
            <mxPoint x="500" y="340" as="targetPoint" />
          </mxGeometry>
        </mxCell>
        <mxCell id="gaoajHwSLxDOB-NbGoxR-20" value="" style="endArrow=none;html=1;rounded=0;exitX=1;exitY=0.5;exitDx=0;exitDy=0;" edge="1" parent="1" source="gaoajHwSLxDOB-NbGoxR-5">
          <mxGeometry width="50" height="50" relative="1" as="geometry">
            <mxPoint x="450" y="670" as="sourcePoint" />
            <mxPoint x="760" y="680" as="targetPoint" />
          </mxGeometry>
        </mxCell>
        <mxCell id="gaoajHwSLxDOB-NbGoxR-21" value="" style="endArrow=none;html=1;rounded=0;entryX=0.464;entryY=1.024;entryDx=0;entryDy=0;entryPerimeter=0;exitX=0.5;exitY=0;exitDx=0;exitDy=0;" edge="1" parent="1" source="gaoajHwSLxDOB-NbGoxR-10" target="gaoajHwSLxDOB-NbGoxR-11">
          <mxGeometry width="50" height="50" relative="1" as="geometry">
            <mxPoint x="562" y="450" as="sourcePoint" />
            <mxPoint x="500" y="380" as="targetPoint" />
          </mxGeometry>
        </mxCell>
        <mxCell id="gaoajHwSLxDOB-NbGoxR-22" value="" style="endArrow=classic;html=1;rounded=0;entryX=1;entryY=0.5;entryDx=0;entryDy=0;exitX=0;exitY=0.5;exitDx=0;exitDy=0;" edge="1" parent="1" source="gaoajHwSLxDOB-NbGoxR-10" target="gaoajHwSLxDOB-NbGoxR-4">
          <mxGeometry width="50" height="50" relative="1" as="geometry">
            <mxPoint x="450" y="430" as="sourcePoint" />
            <mxPoint x="500" y="380" as="targetPoint" />
          </mxGeometry>
        </mxCell>
        <mxCell id="gaoajHwSLxDOB-NbGoxR-23" value="" style="endArrow=classic;html=1;rounded=0;entryX=0.462;entryY=0.028;entryDx=0;entryDy=0;exitX=0.441;exitY=1.044;exitDx=0;exitDy=0;exitPerimeter=0;entryPerimeter=0;" edge="1" parent="1" source="gaoajHwSLxDOB-NbGoxR-7" target="gaoajHwSLxDOB-NbGoxR-8">
          <mxGeometry width="50" height="50" relative="1" as="geometry">
            <mxPoint x="450" y="930" as="sourcePoint" />
            <mxPoint x="500" y="880" as="targetPoint" />
          </mxGeometry>
        </mxCell>
        <mxCell id="gaoajHwSLxDOB-NbGoxR-24" value="YES" style="text;html=1;align=center;verticalAlign=middle;whiteSpace=wrap;rounded=0;" vertex="1" parent="1">
          <mxGeometry x="85" y="750" width="110" height="60" as="geometry" />
        </mxCell>
        <mxCell id="gaoajHwSLxDOB-NbGoxR-25" value="No" style="text;html=1;align=center;verticalAlign=middle;whiteSpace=wrap;rounded=0;" vertex="1" parent="1">
          <mxGeometry x="100" y="380" width="100" height="50" as="geometry" />
        </mxCell>
      </root>
    </mxGraphModel>
  </diagram>
</mxfile>
